<svg xmlns="http://www.w3.org/2000/svg" width="760" height="320" viewBox="0 0 760 320">
      <defs>
        <linearGradient id="bg" x1="0" y1="0" x2="1" y2="1"><stop stop-color="#f8f5ff"/><stop offset="1" stop-color="#ffffff"/></linearGradient>
        <filter id="shadow" x="-20%" y="-20%" width="140%" height="140%"><feDropShadow dx="0" dy="9" stdDeviation="11" flood-color="#173b62" flood-opacity=".12"/></filter>
      </defs>
      <rect width="760" height="320" rx="34" fill="url(#bg)"/>
      <path d="M0 252 C150 214 270 296 430 246 C570 204 654 230 760 188 L760 320 L0 320Z" fill="#7258db" fill-opacity=".075"/>
      <circle cx="700" cy="55" r="95" fill="#7258db" fill-opacity=".055"/>
      <g transform="translate(45 -5) scale(1.22)" filter="url(#shadow)"><g transform="translate(80 45)"><path d="M170 115C75 20 40 205 170 115C300 20 265 205 170 115Z" fill="#2f8ee5" fill-opacity=".15" stroke="#2f8ee5" stroke-width="5"/><path d="M170 115C92 52 92 178 170 115C248 52 248 178 170 115Z" fill="#55c783" fill-opacity=".18" stroke="#55c783" stroke-width="5" transform="rotate(60 170 115)"/><circle cx="170" cy="115" r="23" fill="#ef5967"/><circle cx="282" cy="115" r="11" fill="#2f8ee5"/><circle cx="115" cy="40" r="11" fill="#55c783"/></g></g>
    </svg>