<svg xmlns="http://www.w3.org/2000/svg" width="760" height="320" viewBox="0 0 760 320">
      <defs>
        <linearGradient id="bg" x1="0" y1="0" x2="1" y2="1"><stop stop-color="#f1fbff"/><stop offset="1" stop-color="#ffffff"/></linearGradient>
        <filter id="shadow" x="-20%" y="-20%" width="140%" height="140%"><feDropShadow dx="0" dy="9" stdDeviation="11" flood-color="#173b62" flood-opacity=".12"/></filter>
      </defs>
      <rect width="760" height="320" rx="34" fill="url(#bg)"/>
      <path d="M0 252 C150 214 270 296 430 246 C570 204 654 230 760 188 L760 320 L0 320Z" fill="#2f8ee5" fill-opacity=".075"/>
      <circle cx="700" cy="55" r="95" fill="#2f8ee5" fill-opacity=".055"/>
      <g transform="translate(45 -5) scale(1.22)" filter="url(#shadow)"><g><rect x="85" y="65" width="60" height="56" rx="12" fill="#d9efff" stroke="#5b8cb6" stroke-opacity=".35"/><text x="115" y="102" text-anchor="middle" font-family="DejaVu Sans" font-weight="700" font-size="22" fill="#173b62">H</text><rect x="163" y="65" width="60" height="56" rx="12" fill="#dff7e7" stroke="#5b8cb6" stroke-opacity=".35"/><text x="193" y="102" text-anchor="middle" font-family="DejaVu Sans" font-weight="700" font-size="22" fill="#173b62">C</text><rect x="241" y="65" width="60" height="56" rx="12" fill="#fff0c8" stroke="#5b8cb6" stroke-opacity=".35"/><text x="271" y="102" text-anchor="middle" font-family="DejaVu Sans" font-weight="700" font-size="22" fill="#173b62">N</text><rect x="319" y="65" width="60" height="56" rx="12" fill="#f8ddff" stroke="#5b8cb6" stroke-opacity=".35"/><text x="349" y="102" text-anchor="middle" font-family="DejaVu Sans" font-weight="700" font-size="22" fill="#173b62">O</text><rect x="85" y="137" width="60" height="56" rx="12" fill="#dff7e7" stroke="#5b8cb6" stroke-opacity=".35"/><text x="115" y="174" text-anchor="middle" font-family="DejaVu Sans" font-weight="700" font-size="22" fill="#173b62">Na</text><rect x="163" y="137" width="60" height="56" rx="12" fill="#fff0c8" stroke="#5b8cb6" stroke-opacity=".35"/><text x="193" y="174" text-anchor="middle" font-family="DejaVu Sans" font-weight="700" font-size="22" fill="#173b62">Mg</text><rect x="241" y="137" width="60" height="56" rx="12" fill="#f8ddff" stroke="#5b8cb6" stroke-opacity=".35"/><text x="271" y="174" text-anchor="middle" font-family="DejaVu Sans" font-weight="700" font-size="22" fill="#173b62">Cl</text><rect x="319" y="137" width="60" height="56" rx="12" fill="#d9efff" stroke="#5b8cb6" stroke-opacity=".35"/><text x="349" y="174" text-anchor="middle" font-family="DejaVu Sans" font-weight="700" font-size="22" fill="#173b62">K</text><rect x="85" y="209" width="60" height="56" rx="12" fill="#fff0c8" stroke="#5b8cb6" stroke-opacity=".35"/><text x="115" y="246" text-anchor="middle" font-family="DejaVu Sans" font-weight="700" font-size="22" fill="#173b62">Ca</text><rect x="163" y="209" width="60" height="56" rx="12" fill="#f8ddff" stroke="#5b8cb6" stroke-opacity=".35"/><text x="193" y="246" text-anchor="middle" font-family="DejaVu Sans" font-weight="700" font-size="22" fill="#173b62">Fe</text><rect x="241" y="209" width="60" height="56" rx="12" fill="#d9efff" stroke="#5b8cb6" stroke-opacity=".35"/><text x="271" y="246" text-anchor="middle" font-family="DejaVu Sans" font-weight="700" font-size="22" fill="#173b62">Cu</text><rect x="319" y="209" width="60" height="56" rx="12" fill="#dff7e7" stroke="#5b8cb6" stroke-opacity=".35"/><text x="349" y="246" text-anchor="middle" font-family="DejaVu Sans" font-weight="700" font-size="22" fill="#173b62">Zn</text></g></g>
    </svg>