<svg xmlns="http://www.w3.org/2000/svg" width="760" height="320" viewBox="0 0 760 320">
      <defs>
        <linearGradient id="bg" x1="0" y1="0" x2="1" y2="1"><stop stop-color="#f1fbff"/><stop offset="1" stop-color="#ffffff"/></linearGradient>
        <filter id="shadow" x="-20%" y="-20%" width="140%" height="140%"><feDropShadow dx="0" dy="9" stdDeviation="11" flood-color="#173b62" flood-opacity=".12"/></filter>
      </defs>
      <rect width="760" height="320" rx="34" fill="url(#bg)"/>
      <path d="M0 252 C150 214 270 296 430 246 C570 204 654 230 760 188 L760 320 L0 320Z" fill="#2f8ee5" fill-opacity=".075"/>
      <circle cx="700" cy="55" r="95" fill="#2f8ee5" fill-opacity=".055"/>
      <g transform="translate(45 -5) scale(1.22)" filter="url(#shadow)"><g><path d="M90 86H180L205 58L255 112L305 58L355 112L385 86H440V238H90Z" fill="none" stroke="#173b62" stroke-width="7" stroke-linejoin="round"/><rect x="70" y="137" width="42" height="50" rx="6" fill="#f0ad38" stroke="#173b62" stroke-width="5"/><path d="M82 124v-18M100 124V92" stroke="#173b62" stroke-width="5"/><path d="M265 238v-44M265 194h60" stroke="#2f8ee5" stroke-width="7"/><circle cx="266" cy="239" r="8" fill="#2f8ee5"/></g></g>
    </svg>