<svg xmlns="http://www.w3.org/2000/svg" width="760" height="320" viewBox="0 0 760 320">
      <defs>
        <linearGradient id="bg" x1="0" y1="0" x2="1" y2="1"><stop stop-color="#f1fbff"/><stop offset="1" stop-color="#ffffff"/></linearGradient>
        <filter id="shadow" x="-20%" y="-20%" width="140%" height="140%"><feDropShadow dx="0" dy="9" stdDeviation="11" flood-color="#173b62" flood-opacity=".12"/></filter>
      </defs>
      <rect width="760" height="320" rx="34" fill="url(#bg)"/>
      <path d="M0 252 C150 214 270 296 430 246 C570 204 654 230 760 188 L760 320 L0 320Z" fill="#12aeb0" fill-opacity=".075"/>
      <circle cx="700" cy="55" r="95" fill="#12aeb0" fill-opacity=".055"/>
      <g transform="translate(45 -5) scale(1.22)" filter="url(#shadow)"><g stroke="#254e76" stroke-width="7" stroke-linecap="round"><path d="M110 178L175 130L245 165L315 115L382 158"/><path d="M175 130L175 62"/><path d="M245 165L248 238"/><path d="M315 115L368 70"/></g><g fill="#55c783" stroke="#fff" stroke-width="5"><circle cx="110" cy="178" r="24"/><circle cx="175" cy="130" r="24"/><circle cx="245" cy="165" r="24"/><circle cx="315" cy="115" r="24"/><circle cx="382" cy="158" r="24"/></g><g fill="#ef5967" stroke="#fff" stroke-width="5"><circle cx="175" cy="62" r="21"/><circle cx="248" cy="238" r="21"/></g><circle cx="368" cy="70" r="20" fill="#2f8ee5" stroke="#fff" stroke-width="5"/></g>
    </svg>