<svg xmlns="http://www.w3.org/2000/svg" width="760" height="320" viewBox="0 0 760 320">
      <defs>
        <linearGradient id="bg" x1="0" y1="0" x2="1" y2="1"><stop stop-color="#f8f5ff"/><stop offset="1" stop-color="#ffffff"/></linearGradient>
        <filter id="shadow" x="-20%" y="-20%" width="140%" height="140%"><feDropShadow dx="0" dy="9" stdDeviation="11" flood-color="#173b62" flood-opacity=".12"/></filter>
      </defs>
      <rect width="760" height="320" rx="34" fill="url(#bg)"/>
      <path d="M0 252 C150 214 270 296 430 246 C570 204 654 230 760 188 L760 320 L0 320Z" fill="#7258db" fill-opacity=".075"/>
      <circle cx="700" cy="55" r="95" fill="#7258db" fill-opacity=".055"/>
      <g transform="translate(45 -5) scale(1.22)" filter="url(#shadow)"><g><path d="M70 50V260H445" fill="none" stroke="#173b62" stroke-width="6"/><path d="M82 85C145 110 180 180 240 190S350 174 435 174" fill="none" stroke="#2f8ee5" stroke-width="8"/><path d="M82 236C145 212 185 170 240 160S350 174 435 174" fill="none" stroke="#55c783" stroke-width="8"/><path d="M263 80h90" stroke="#f0ad38" stroke-width="7" stroke-linecap="round" stroke-dasharray="9 10"/></g></g>
    </svg>