<svg xmlns="http://www.w3.org/2000/svg" width="760" height="320" viewBox="0 0 760 320">
      <defs>
        <linearGradient id="bg" x1="0" y1="0" x2="1" y2="1"><stop stop-color="#f1fbff"/><stop offset="1" stop-color="#ffffff"/></linearGradient>
        <filter id="shadow" x="-20%" y="-20%" width="140%" height="140%"><feDropShadow dx="0" dy="9" stdDeviation="11" flood-color="#173b62" flood-opacity=".12"/></filter>
      </defs>
      <rect width="760" height="320" rx="34" fill="url(#bg)"/>
      <path d="M0 252 C150 214 270 296 430 246 C570 204 654 230 760 188 L760 320 L0 320Z" fill="#2f8ee5" fill-opacity=".075"/>
      <circle cx="700" cy="55" r="95" fill="#2f8ee5" fill-opacity=".055"/>
      <g transform="translate(45 -5) scale(1.22)" filter="url(#shadow)"><g><rect x="88" y="84" width="90" height="155" rx="22" fill="#e8f3ff" stroke="#2f8ee5" stroke-width="6"/><rect x="112" y="60" width="42" height="26" rx="7" fill="#173b62"/><rect x="215" y="84" width="90" height="155" rx="22" fill="#e5f9ec" stroke="#55c783" stroke-width="6"/><rect x="239" y="60" width="42" height="26" rx="7" fill="#173b62"/><rect x="342" y="84" width="90" height="155" rx="22" fill="#fff0cf" stroke="#f0ad38" stroke-width="6"/><rect x="366" y="60" width="42" height="26" rx="7" fill="#173b62"/><path d="M115 160h36M133 142v36M240 160h40M369 160h36M387 142v36" stroke="#173b62" stroke-width="6" stroke-linecap="round"/></g></g>
    </svg>