<svg xmlns="http://www.w3.org/2000/svg" width="760" height="320" viewBox="0 0 760 320">
      <defs>
        <linearGradient id="bg" x1="0" y1="0" x2="1" y2="1"><stop stop-color="#fff8f1"/><stop offset="1" stop-color="#ffffff"/></linearGradient>
        <filter id="shadow" x="-20%" y="-20%" width="140%" height="140%"><feDropShadow dx="0" dy="9" stdDeviation="11" flood-color="#173b62" flood-opacity=".12"/></filter>
      </defs>
      <rect width="760" height="320" rx="34" fill="url(#bg)"/>
      <path d="M0 252 C150 214 270 296 430 246 C570 204 654 230 760 188 L760 320 L0 320Z" fill="#ef5967" fill-opacity=".075"/>
      <circle cx="700" cy="55" r="95" fill="#ef5967" fill-opacity=".055"/>
      <g transform="translate(45 -5) scale(1.22)" filter="url(#shadow)"><g><path d="M100 75h95M120 75v45l-50 105c-12 25 3 43 28 43h120c25 0 40-18 28-43l-50-105V75" fill="#fff" stroke="#2f8ee5" stroke-width="6"/><path d="M92 220h132l22 46H70z" fill="#ef5967" fill-opacity=".72"/><text x="158" y="246" text-anchor="middle" font-family="DejaVu Sans" font-size="28" font-weight="700" fill="#fff">H⁺</text><path d="M300 75h95M320 75v45l-50 105c-12 25 3 43 28 43h120c25 0 40-18 28-43l-50-105V75" fill="#fff" stroke="#55c783" stroke-width="6"/><path d="M292 220h132l22 46H270z" fill="#55c783" fill-opacity=".72"/><text x="358" y="246" text-anchor="middle" font-family="DejaVu Sans" font-size="28" font-weight="700" fill="#fff">OH⁻</text><path d="M239 160h61" stroke="#f0ad38" stroke-width="7"/><path d="M294 149l15 11-15 11" fill="none" stroke="#f0ad38" stroke-width="6"/></g></g>
    </svg>