<svg xmlns="http://www.w3.org/2000/svg" width="760" height="320" viewBox="0 0 760 320">
      <defs>
        <linearGradient id="bg" x1="0" y1="0" x2="1" y2="1"><stop stop-color="#f1fbff"/><stop offset="1" stop-color="#ffffff"/></linearGradient>
        <filter id="shadow" x="-20%" y="-20%" width="140%" height="140%"><feDropShadow dx="0" dy="9" stdDeviation="11" flood-color="#173b62" flood-opacity=".12"/></filter>
      </defs>
      <rect width="760" height="320" rx="34" fill="url(#bg)"/>
      <path d="M0 252 C150 214 270 296 430 246 C570 204 654 230 760 188 L760 320 L0 320Z" fill="#12aeb0" fill-opacity=".075"/>
      <circle cx="700" cy="55" r="95" fill="#12aeb0" fill-opacity=".055"/>
      <g transform="translate(45 -5) scale(1.22)" filter="url(#shadow)"><g><rect x="65" y="85" width="120" height="165" rx="20" fill="#dff7ff" stroke="#2f8ee5" stroke-width="6"/><rect x="220" y="85" width="120" height="165" rx="20" fill="#dff7e7" stroke="#55c783" stroke-width="6"/><rect x="375" y="85" width="120" height="165" rx="20" fill="#fff0cf" stroke="#f0ad38" stroke-width="6"/><g fill="#2f8ee5"><circle cx="90" cy="120" r="8"/><circle cx="123" cy="120" r="8"/><circle cx="156" cy="120" r="8"/><circle cx="90" cy="154" r="8"/><circle cx="123" cy="154" r="8"/><circle cx="156" cy="154" r="8"/></g><g fill="#55c783"><circle cx="245" cy="120" r="8"/><circle cx="278" cy="120" r="8"/><circle cx="311" cy="120" r="8"/><circle cx="245" cy="154" r="8"/><circle cx="278" cy="154" r="8"/><circle cx="311" cy="154" r="8"/><circle cx="245" cy="188" r="8"/><circle cx="278" cy="188" r="8"/><circle cx="311" cy="188" r="8"/></g><g fill="#f0ad38"><circle cx="400" cy="112" r="8"/><circle cx="433" cy="112" r="8"/><circle cx="466" cy="112" r="8"/><circle cx="400" cy="143" r="8"/><circle cx="433" cy="143" r="8"/><circle cx="466" cy="143" r="8"/><circle cx="400" cy="174" r="8"/><circle cx="433" cy="174" r="8"/><circle cx="466" cy="174" r="8"/><circle cx="400" cy="205" r="8"/><circle cx="433" cy="205" r="8"/><circle cx="466" cy="205" r="8"/></g></g></g>
    </svg>