<svg xmlns="http://www.w3.org/2000/svg" width="760" height="320" viewBox="0 0 760 320">
      <defs>
        <linearGradient id="bg" x1="0" y1="0" x2="1" y2="1"><stop stop-color="#f1fbff"/><stop offset="1" stop-color="#ffffff"/></linearGradient>
        <filter id="shadow" x="-20%" y="-20%" width="140%" height="140%"><feDropShadow dx="0" dy="9" stdDeviation="11" flood-color="#173b62" flood-opacity=".12"/></filter>
      </defs>
      <rect width="760" height="320" rx="34" fill="url(#bg)"/>
      <path d="M0 252 C150 214 270 296 430 246 C570 204 654 230 760 188 L760 320 L0 320Z" fill="#2f8ee5" fill-opacity=".075"/>
      <circle cx="700" cy="55" r="95" fill="#2f8ee5" fill-opacity=".055"/>
      <g transform="translate(45 -5) scale(1.22)" filter="url(#shadow)"><g><circle cx="120" cy="75" r="18" fill="#2f8ee5"/><circle cx="120" cy="75" r="8" fill="#fff" fill-opacity=".65"/><path d="M138 75H157" stroke="#8fb6d8" stroke-width="5"/><path d="M120 93V112" stroke="#8fb6d8" stroke-width="5"/><circle cx="175" cy="75" r="18" fill="#55c783"/><circle cx="175" cy="75" r="8" fill="#fff" fill-opacity=".65"/><path d="M193 75H212" stroke="#8fb6d8" stroke-width="5"/><path d="M175 93V112" stroke="#8fb6d8" stroke-width="5"/><circle cx="230" cy="75" r="18" fill="#2f8ee5"/><circle cx="230" cy="75" r="8" fill="#fff" fill-opacity=".65"/><path d="M248 75H267" stroke="#8fb6d8" stroke-width="5"/><path d="M230 93V112" stroke="#8fb6d8" stroke-width="5"/><circle cx="285" cy="75" r="18" fill="#55c783"/><circle cx="285" cy="75" r="8" fill="#fff" fill-opacity=".65"/><path d="M303 75H322" stroke="#8fb6d8" stroke-width="5"/><path d="M285 93V112" stroke="#8fb6d8" stroke-width="5"/><circle cx="340" cy="75" r="18" fill="#2f8ee5"/><circle cx="340" cy="75" r="8" fill="#fff" fill-opacity=".65"/><path d="M340 93V112" stroke="#8fb6d8" stroke-width="5"/><circle cx="120" cy="130" r="18" fill="#55c783"/><circle cx="120" cy="130" r="8" fill="#fff" fill-opacity=".65"/><path d="M138 130H157" stroke="#8fb6d8" stroke-width="5"/><path d="M120 148V167" stroke="#8fb6d8" stroke-width="5"/><circle cx="175" cy="130" r="18" fill="#2f8ee5"/><circle cx="175" cy="130" r="8" fill="#fff" fill-opacity=".65"/><path d="M193 130H212" stroke="#8fb6d8" stroke-width="5"/><path d="M175 148V167" stroke="#8fb6d8" stroke-width="5"/><circle cx="230" cy="130" r="18" fill="#55c783"/><circle cx="230" cy="130" r="8" fill="#fff" fill-opacity=".65"/><path d="M248 130H267" stroke="#8fb6d8" stroke-width="5"/><path d="M230 148V167" stroke="#8fb6d8" stroke-width="5"/><circle cx="285" cy="130" r="18" fill="#2f8ee5"/><circle cx="285" cy="130" r="8" fill="#fff" fill-opacity=".65"/><path d="M303 130H322" stroke="#8fb6d8" stroke-width="5"/><path d="M285 148V167" stroke="#8fb6d8" stroke-width="5"/><circle cx="340" cy="130" r="18" fill="#55c783"/><circle cx="340" cy="130" r="8" fill="#fff" fill-opacity=".65"/><path d="M340 148V167" stroke="#8fb6d8" stroke-width="5"/><circle cx="120" cy="185" r="18" fill="#2f8ee5"/><circle cx="120" cy="185" r="8" fill="#fff" fill-opacity=".65"/><path d="M138 185H157" stroke="#8fb6d8" stroke-width="5"/><path d="M120 203V222" stroke="#8fb6d8" stroke-width="5"/><circle cx="175" cy="185" r="18" fill="#55c783"/><circle cx="175" cy="185" r="8" fill="#fff" fill-opacity=".65"/><path d="M193 185H212" stroke="#8fb6d8" stroke-width="5"/><path d="M175 203V222" stroke="#8fb6d8" stroke-width="5"/><circle cx="230" cy="185" r="18" fill="#2f8ee5"/><circle cx="230" cy="185" r="8" fill="#fff" fill-opacity=".65"/><path d="M248 185H267" stroke="#8fb6d8" stroke-width="5"/><path d="M230 203V222" stroke="#8fb6d8" stroke-width="5"/><circle cx="285" cy="185" r="18" fill="#55c783"/><circle cx="285" cy="185" r="8" fill="#fff" fill-opacity=".65"/><path d="M303 185H322" stroke="#8fb6d8" stroke-width="5"/><path d="M285 203V222" stroke="#8fb6d8" stroke-width="5"/><circle cx="340" cy="185" r="18" fill="#2f8ee5"/><circle cx="340" cy="185" r="8" fill="#fff" fill-opacity=".65"/><path d="M340 203V222" stroke="#8fb6d8" stroke-width="5"/><circle cx="120" cy="240" r="18" fill="#55c783"/><circle cx="120" cy="240" r="8" fill="#fff" fill-opacity=".65"/><path d="M138 240H157" stroke="#8fb6d8" stroke-width="5"/><circle cx="175" cy="240" r="18" fill="#2f8ee5"/><circle cx="175" cy="240" r="8" fill="#fff" fill-opacity=".65"/><path d="M193 240H212" stroke="#8fb6d8" stroke-width="5"/><circle cx="230" cy="240" r="18" fill="#55c783"/><circle cx="230" cy="240" r="8" fill="#fff" fill-opacity=".65"/><path d="M248 240H267" stroke="#8fb6d8" stroke-width="5"/><circle cx="285" cy="240" r="18" fill="#2f8ee5"/><circle cx="285" cy="240" r="8" fill="#fff" fill-opacity=".65"/><path d="M303 240H322" stroke="#8fb6d8" stroke-width="5"/><circle cx="340" cy="240" r="18" fill="#55c783"/><circle cx="340" cy="240" r="8" fill="#fff" fill-opacity=".65"/></g></g>
    </svg>