<svg xmlns="http://www.w3.org/2000/svg" width="760" height="320" viewBox="0 0 760 320">
      <defs>
        <linearGradient id="bg" x1="0" y1="0" x2="1" y2="1"><stop stop-color="#f1fbff"/><stop offset="1" stop-color="#ffffff"/></linearGradient>
        <filter id="shadow" x="-20%" y="-20%" width="140%" height="140%"><feDropShadow dx="0" dy="9" stdDeviation="11" flood-color="#173b62" flood-opacity=".12"/></filter>
      </defs>
      <rect width="760" height="320" rx="34" fill="url(#bg)"/>
      <path d="M0 252 C150 214 270 296 430 246 C570 204 654 230 760 188 L760 320 L0 320Z" fill="#12aeb0" fill-opacity=".075"/>
      <circle cx="700" cy="55" r="95" fill="#12aeb0" fill-opacity=".055"/>
      <g transform="translate(45 -5) scale(1.22)" filter="url(#shadow)"><g><path d="M205 55h90M230 55v55l-82 126c-17 26 2 48 31 48h143c29 0 48-22 31-48l-82-126V55" fill="#fff" fill-opacity=".82" stroke="#2d6d9e" stroke-width="7" stroke-linejoin="round"/><path d="M185 223h134l29 45c5 8-1 16-12 16H165c-11 0-17-8-12-16z" fill="#58c98b" fill-opacity=".88"/><g fill="#fff" fill-opacity=".74"><circle cx="215" cy="242" r="8"/><circle cx="262" cy="259" r="10"/><circle cx="291" cy="235" r="6"/></g><path d="M230 87h41" stroke="#8fb6d8" stroke-width="5" stroke-linecap="round"/></g></g>
    </svg>