<svg xmlns="http://www.w3.org/2000/svg" width="760" height="320" viewBox="0 0 760 320">
      <defs>
        <linearGradient id="bg" x1="0" y1="0" x2="1" y2="1"><stop stop-color="#fff8f1"/><stop offset="1" stop-color="#ffffff"/></linearGradient>
        <filter id="shadow" x="-20%" y="-20%" width="140%" height="140%"><feDropShadow dx="0" dy="9" stdDeviation="11" flood-color="#173b62" flood-opacity=".12"/></filter>
      </defs>
      <rect width="760" height="320" rx="34" fill="url(#bg)"/>
      <path d="M0 252 C150 214 270 296 430 246 C570 204 654 230 760 188 L760 320 L0 320Z" fill="#ef7a45" fill-opacity=".075"/>
      <circle cx="700" cy="55" r="95" fill="#ef7a45" fill-opacity=".055"/>
      <g transform="translate(45 -5) scale(1.22)" filter="url(#shadow)"><g><path d="M75 52V258H445" fill="none" stroke="#173b62" stroke-width="6"/><path d="M85 225C130 218 160 180 196 182C240 185 250 78 315 75C352 73 380 110 435 105" fill="none" stroke="#2f8ee5" stroke-width="9" stroke-linecap="round"/><path d="M75 225H445" stroke="#8fb6d8" stroke-width="3" stroke-dasharray="10 10"/><path d="M315 75V225" stroke="#ef5967" stroke-width="4" stroke-dasharray="8 8"/></g></g>
    </svg>