<svg xmlns="http://www.w3.org/2000/svg" width="760" height="320" viewBox="0 0 760 320">
      <defs>
        <linearGradient id="bg" x1="0" y1="0" x2="1" y2="1"><stop stop-color="#f1fbff"/><stop offset="1" stop-color="#ffffff"/></linearGradient>
        <filter id="shadow" x="-20%" y="-20%" width="140%" height="140%"><feDropShadow dx="0" dy="9" stdDeviation="11" flood-color="#173b62" flood-opacity=".12"/></filter>
      </defs>
      <rect width="760" height="320" rx="34" fill="url(#bg)"/>
      <path d="M0 252 C150 214 270 296 430 246 C570 204 654 230 760 188 L760 320 L0 320Z" fill="#12aeb0" fill-opacity=".075"/>
      <circle cx="700" cy="55" r="95" fill="#12aeb0" fill-opacity=".055"/>
      <g transform="translate(45 -5) scale(1.22)" filter="url(#shadow)"><g><path d="M80 42V260H440" fill="none" stroke="#173b62" stroke-width="6"/><path d="M92 250 C150 247 180 224 220 192 C275 148 325 93 420 70" fill="none" stroke="#2f8ee5" stroke-width="8" stroke-linecap="round"/><path d="M92 250 C150 242 190 193 235 130 C290 58 350 50 420 45" fill="none" stroke="#55c783" stroke-width="8" stroke-linecap="round"/><circle cx="322" cy="95" r="9" fill="#55c783"/><circle cx="305" cy="112" r="9" fill="#2f8ee5"/></g></g>
    </svg>