<svg xmlns="http://www.w3.org/2000/svg" width="760" height="320" viewBox="0 0 760 320">
      <defs>
        <linearGradient id="bg" x1="0" y1="0" x2="1" y2="1"><stop stop-color="#f1fbff"/><stop offset="1" stop-color="#ffffff"/></linearGradient>
        <filter id="shadow" x="-20%" y="-20%" width="140%" height="140%"><feDropShadow dx="0" dy="9" stdDeviation="11" flood-color="#173b62" flood-opacity=".12"/></filter>
      </defs>
      <rect width="760" height="320" rx="34" fill="url(#bg)"/>
      <path d="M0 252 C150 214 270 296 430 246 C570 204 654 230 760 188 L760 320 L0 320Z" fill="#2f8ee5" fill-opacity=".075"/>
      <circle cx="700" cy="55" r="95" fill="#2f8ee5" fill-opacity=".055"/>
      <g transform="translate(45 -5) scale(1.22)" filter="url(#shadow)"><g><rect x="100" y="110" width="330" height="145" rx="25" fill="#dff7ff" stroke="#2f8ee5" stroke-width="6"/><path d="M170 55V213M360 55V213" stroke="#173b62" stroke-width="12"/><path d="M170 55H235M295 55H360" stroke="#173b62" stroke-width="7"/><rect x="235" y="35" width="60" height="40" rx="9" fill="#f0ad38"/><g fill="#55c783"><circle cx="160" cy="215" r="8"/><circle cx="185" cy="198" r="7"/><circle cx="350" cy="215" r="8"/><circle cx="375" cy="196" r="7"/></g><path d="M235 55h60" stroke="#fff" stroke-width="5"/></g></g>
    </svg>