<svg xmlns="http://www.w3.org/2000/svg" width="760" height="320" viewBox="0 0 760 320">
      <defs>
        <linearGradient id="bg" x1="0" y1="0" x2="1" y2="1"><stop stop-color="#f1fbff"/><stop offset="1" stop-color="#ffffff"/></linearGradient>
        <filter id="shadow" x="-20%" y="-20%" width="140%" height="140%"><feDropShadow dx="0" dy="9" stdDeviation="11" flood-color="#173b62" flood-opacity=".12"/></filter>
      </defs>
      <rect width="760" height="320" rx="34" fill="url(#bg)"/>
      <path d="M0 252 C150 214 270 296 430 246 C570 204 654 230 760 188 L760 320 L0 320Z" fill="#2f8ee5" fill-opacity=".075"/>
      <circle cx="700" cy="55" r="95" fill="#2f8ee5" fill-opacity=".055"/>
      <g transform="translate(45 -5) scale(1.22)" filter="url(#shadow)"><g><path d="M60 165H452" stroke="#8fa8be" stroke-width="4" stroke-dasharray="10 8"/><polyline points="70.0,165.0 71.0,160.1 72.0,155.3 73.0,150.4 74.0,145.7 75.0,141.1 76.0,136.5 77.0,132.1 78.0,127.9 79.0,123.9 80.0,120.0 81.0,116.4 82.0,113.0 83.0,109.8 84.0,107.0 85.0,104.4 86.0,102.1 87.0,100.1 88.0,98.4 89.0,97.1 90.0,96.1 91.0,95.4 92.0,95.0 93.0,95.0 94.0,95.4 95.0,96.1 96.0,97.1 97.0,98.4 98.0,100.1 99.0,102.1 100.0,104.4 101.0,107.0 102.0,109.8 103.0,113.0 104.0,116.4 105.0,120.0 106.0,123.9 107.0,127.9 108.0,132.1 109.0,136.5 110.0,141.1 111.0,145.7 112.0,150.4 113.0,155.3 114.0,160.1 115.0,165.0 116.0,169.9 117.0,174.7 118.0,179.6 119.0,184.3 120.0,188.9 121.0,193.5 122.0,197.9 123.0,202.1 124.0,206.1 125.0,210.0 126.0,213.6 127.0,217.0 128.0,220.2 129.0,223.0 130.0,225.6 131.0,227.9 132.0,229.9 133.0,231.6 134.0,232.9 135.0,233.9 136.0,234.6 137.0,235.0 138.0,235.0 139.0,234.6 140.0,233.9 141.0,232.9 142.0,231.6 143.0,229.9 144.0,227.9 145.0,225.6 146.0,223.0 147.0,220.2 148.0,217.0 149.0,213.6 150.0,210.0 151.0,206.1 152.0,202.1 153.0,197.9 154.0,193.5 155.0,188.9 156.0,184.3 157.0,179.6 158.0,174.7 159.0,169.9 160.0,165.0 161.0,160.1 162.0,155.3 163.0,150.4 164.0,145.7 165.0,141.1 166.0,136.5 167.0,132.1 168.0,127.9 169.0,123.9 170.0,120.0 171.0,116.4 172.0,113.0 173.0,109.8 174.0,107.0 175.0,104.4 176.0,102.1 177.0,100.1 178.0,98.4 179.0,97.1 180.0,96.1 181.0,95.4 182.0,95.0 183.0,95.0 184.0,95.4 185.0,96.1 186.0,97.1 187.0,98.4 188.0,100.1 189.0,102.1 190.0,104.4 191.0,107.0 192.0,109.8 193.0,113.0 194.0,116.4 195.0,120.0 196.0,123.9 197.0,127.9 198.0,132.1 199.0,136.5 200.0,141.1 201.0,145.7 202.0,150.4 203.0,155.3 204.0,160.1 205.0,165.0 206.0,169.9 207.0,174.7 208.0,179.6 209.0,184.3 210.0,188.9 211.0,193.5 212.0,197.9 213.0,202.1 214.0,206.1 215.0,210.0 216.0,213.6 217.0,217.0 218.0,220.2 219.0,223.0 220.0,225.6 221.0,227.9 222.0,229.9 223.0,231.6 224.0,232.9 225.0,233.9 226.0,234.6 227.0,235.0 228.0,235.0 229.0,234.6 230.0,233.9 231.0,232.9 232.0,231.6 233.0,229.9 234.0,227.9 235.0,225.6 236.0,223.0 237.0,220.2 238.0,217.0 239.0,213.6 240.0,210.0 241.0,206.1 242.0,202.1 243.0,197.9 244.0,193.5 245.0,188.9 246.0,184.3 247.0,179.6 248.0,174.7 249.0,169.9 250.0,165.0 251.0,160.1 252.0,155.3 253.0,150.4 254.0,145.7 255.0,141.1 256.0,136.5 257.0,132.1 258.0,127.9 259.0,123.9 260.0,120.0 261.0,116.4 262.0,113.0 263.0,109.8 264.0,107.0 265.0,104.4 266.0,102.1 267.0,100.1 268.0,98.4 269.0,97.1 270.0,96.1 271.0,95.4 272.0,95.0 273.0,95.0 274.0,95.4 275.0,96.1 276.0,97.1 277.0,98.4 278.0,100.1 279.0,102.1 280.0,104.4 281.0,107.0 282.0,109.8 283.0,113.0 284.0,116.4 285.0,120.0 286.0,123.9 287.0,127.9 288.0,132.1 289.0,136.5 290.0,141.1 291.0,145.7 292.0,150.4 293.0,155.3 294.0,160.1 295.0,165.0 296.0,169.9 297.0,174.7 298.0,179.6 299.0,184.3 300.0,188.9 301.0,193.5 302.0,197.9 303.0,202.1 304.0,206.1 305.0,210.0 306.0,213.6 307.0,217.0 308.0,220.2 309.0,223.0 310.0,225.6 311.0,227.9 312.0,229.9 313.0,231.6 314.0,232.9 315.0,233.9 316.0,234.6 317.0,235.0 318.0,235.0 319.0,234.6 320.0,233.9 321.0,232.9 322.0,231.6 323.0,229.9 324.0,227.9 325.0,225.6 326.0,223.0 327.0,220.2 328.0,217.0 329.0,213.6 330.0,210.0 331.0,206.1 332.0,202.1 333.0,197.9 334.0,193.5 335.0,188.9 336.0,184.3 337.0,179.6 338.0,174.7 339.0,169.9 340.0,165.0 341.0,160.1 342.0,155.3 343.0,150.4 344.0,145.7 345.0,141.1 346.0,136.5 347.0,132.1 348.0,127.9 349.0,123.9 350.0,120.0 351.0,116.4 352.0,113.0 353.0,109.8 354.0,107.0 355.0,104.4 356.0,102.1 357.0,100.1 358.0,98.4 359.0,97.1 360.0,96.1 361.0,95.4 362.0,95.0 363.0,95.0 364.0,95.4 365.0,96.1 366.0,97.1 367.0,98.4 368.0,100.1 369.0,102.1 370.0,104.4 371.0,107.0 372.0,109.8 373.0,113.0 374.0,116.4 375.0,120.0 376.0,123.9 377.0,127.9 378.0,132.1 379.0,136.5 380.0,141.1 381.0,145.7 382.0,150.4 383.0,155.3 384.0,160.1 385.0,165.0 386.0,169.9 387.0,174.7 388.0,179.6 389.0,184.3 390.0,188.9 391.0,193.5 392.0,197.9 393.0,202.1 394.0,206.1 395.0,210.0 396.0,213.6 397.0,217.0 398.0,220.2 399.0,223.0 400.0,225.6 401.0,227.9 402.0,229.9 403.0,231.6 404.0,232.9 405.0,233.9 406.0,234.6 407.0,235.0 408.0,235.0 409.0,234.6 410.0,233.9 411.0,232.9 412.0,231.6 413.0,229.9 414.0,227.9 415.0,225.6 416.0,223.0 417.0,220.2 418.0,217.0 419.0,213.6 420.0,210.0 421.0,206.1 422.0,202.1 423.0,197.9 424.0,193.5 425.0,188.9 426.0,184.3 427.0,179.6 428.0,174.7 429.0,169.9 430.0,165.0" fill="none" stroke="#2f8ee5" stroke-width="9" stroke-linecap="round"/><path d="M117 85V245M297 85V245" stroke="#55c783" stroke-width="4" stroke-dasharray="8 8"/><path d="M117 270H297" stroke="#55c783" stroke-width="5"/><path d="M117 270l14-8v16zM297 270l-14-8v16z" fill="#55c783"/><text x="200" y="306" font-family="DejaVu Sans" font-size="25" font-weight="700" fill="#173b62">λ</text></g></g>
    </svg>