<svg xmlns="http://www.w3.org/2000/svg" width="760" height="320" viewBox="0 0 760 320">
      <defs>
        <linearGradient id="bg" x1="0" y1="0" x2="1" y2="1"><stop stop-color="#f1fbff"/><stop offset="1" stop-color="#ffffff"/></linearGradient>
        <filter id="shadow" x="-20%" y="-20%" width="140%" height="140%"><feDropShadow dx="0" dy="9" stdDeviation="11" flood-color="#173b62" flood-opacity=".12"/></filter>
      </defs>
      <rect width="760" height="320" rx="34" fill="url(#bg)"/>
      <path d="M0 252 C150 214 270 296 430 246 C570 204 654 230 760 188 L760 320 L0 320Z" fill="#2f8ee5" fill-opacity=".075"/>
      <circle cx="700" cy="55" r="95" fill="#2f8ee5" fill-opacity=".055"/>
      <g transform="translate(45 -5) scale(1.22)" filter="url(#shadow)"><g><rect x="180" y="125" width="125" height="96" rx="16" fill="#dcecff" stroke="#2f8ee5" stroke-width="6"/><path d="M242 122V54M242 224v68M177 173H90M308 173h105" stroke="#173b62" stroke-width="7" stroke-linecap="round"/><path d="M242 54l-12 20h24zM242 292l-12-20h24zM90 173l20-12v24zM413 173l-20-12v24z" fill="#173b62"/><text x="260" y="80" font-family="DejaVu Sans" font-size="23" fill="#173b62">N</text><text x="262" y="284" font-family="DejaVu Sans" font-size="23" fill="#173b62">mg</text><text x="385" y="155" font-family="DejaVu Sans" font-size="23" fill="#173b62">F</text><text x="98" y="155" font-family="DejaVu Sans" font-size="23" fill="#173b62">f</text><path d="M65 230H440" stroke="#8fa8be" stroke-width="5"/></g></g>
    </svg>