<svg xmlns="http://www.w3.org/2000/svg" width="760" height="320" viewBox="0 0 760 320">
      <defs>
        <linearGradient id="bg" x1="0" y1="0" x2="1" y2="1"><stop stop-color="#f1fbff"/><stop offset="1" stop-color="#ffffff"/></linearGradient>
        <filter id="shadow" x="-20%" y="-20%" width="140%" height="140%"><feDropShadow dx="0" dy="9" stdDeviation="11" flood-color="#173b62" flood-opacity=".12"/></filter>
      </defs>
      <rect width="760" height="320" rx="34" fill="url(#bg)"/>
      <path d="M0 252 C150 214 270 296 430 246 C570 204 654 230 760 188 L760 320 L0 320Z" fill="#2f8ee5" fill-opacity=".075"/>
      <circle cx="700" cy="55" r="95" fill="#2f8ee5" fill-opacity=".055"/>
      <g transform="translate(45 -5) scale(1.22)" filter="url(#shadow)"><g><path d="M65 260V45M65 260H445" stroke="#173b62" stroke-width="6"/><path d="M65 258C140 88 295 76 430 258" fill="none" stroke="#2f8ee5" stroke-width="8" stroke-dasharray="14 10"/><path d="M65 258L150 150" stroke="#55c783" stroke-width="8"/><path d="M150 150l-8 25-18-14z" fill="#55c783"/><path d="M252 92V258" stroke="#8fa8be" stroke-width="4" stroke-dasharray="9 8"/><path d="M70 285H430" stroke="#55c783" stroke-width="5"/><path d="M70 285l16-9v18zM430 285l-16-9v18z" fill="#55c783"/><text x="160" y="145" font-family="DejaVu Sans" font-size="24" font-weight="700" fill="#173b62">v₀</text><text x="253" y="180" font-family="DejaVu Sans" font-size="24" font-weight="700" fill="#173b62">H</text><text x="250" y="311" font-family="DejaVu Sans" font-size="24" font-weight="700" fill="#173b62">R</text></g></g>
    </svg>