<svg xmlns="http://www.w3.org/2000/svg" width="760" height="320" viewBox="0 0 760 320">
      <defs>
        <linearGradient id="bg" x1="0" y1="0" x2="1" y2="1"><stop stop-color="#fff8f1"/><stop offset="1" stop-color="#ffffff"/></linearGradient>
        <filter id="shadow" x="-20%" y="-20%" width="140%" height="140%"><feDropShadow dx="0" dy="9" stdDeviation="11" flood-color="#173b62" flood-opacity=".12"/></filter>
      </defs>
      <rect width="760" height="320" rx="34" fill="url(#bg)"/>
      <path d="M0 252 C150 214 270 296 430 246 C570 204 654 230 760 188 L760 320 L0 320Z" fill="#ef5967" fill-opacity=".075"/>
      <circle cx="700" cy="55" r="95" fill="#ef5967" fill-opacity=".055"/>
      <g transform="translate(45 -5) scale(1.22)" filter="url(#shadow)"><g><ellipse cx="245" cy="165" rx="118" ry="44" fill="none" stroke="#2f8ee5" stroke-width="5" transform="rotate(0 245 165)" opacity=".82"/><ellipse cx="245" cy="165" rx="118" ry="44" fill="none" stroke="#2f8ee5" stroke-width="5" transform="rotate(60 245 165)" opacity=".82"/><ellipse cx="245" cy="165" rx="118" ry="44" fill="none" stroke="#2f8ee5" stroke-width="5" transform="rotate(120 245 165)" opacity=".82"/><circle cx="245" cy="165" r="39" fill="#3a8bdc"/><circle cx="225" cy="155" r="17" fill="#ef5967"/><circle cx="263" cy="147" r="16" fill="#55c783"/><circle cx="252" cy="184" r="17" fill="#f3b43e"/><circle cx="360" cy="165" r="12" fill="#55c783"/><circle cx="185" cy="68" r="11" fill="#ef5967"/><circle cx="190" cy="255" r="11" fill="#2f8ee5"/></g></g>
    </svg>