<svg xmlns="http://www.w3.org/2000/svg" width="760" height="320" viewBox="0 0 760 320">
      <defs>
        <linearGradient id="bg" x1="0" y1="0" x2="1" y2="1"><stop stop-color="#fff8f1"/><stop offset="1" stop-color="#ffffff"/></linearGradient>
        <filter id="shadow" x="-20%" y="-20%" width="140%" height="140%"><feDropShadow dx="0" dy="9" stdDeviation="11" flood-color="#173b62" flood-opacity=".12"/></filter>
      </defs>
      <rect width="760" height="320" rx="34" fill="url(#bg)"/>
      <path d="M0 252 C150 214 270 296 430 246 C570 204 654 230 760 188 L760 320 L0 320Z" fill="#f0ad38" fill-opacity=".075"/>
      <circle cx="700" cy="55" r="95" fill="#f0ad38" fill-opacity=".055"/>
      <g transform="translate(45 -5) scale(1.22)" filter="url(#shadow)"><g><path d="M55 165H450" stroke="#8fa8be" stroke-width="4" stroke-dasharray="10 9"/><path d="M270 55C235 90 235 240 270 275C305 240 305 90 270 55Z" fill="#bce8ff" stroke="#2f8ee5" stroke-width="6"/><path d="M75 105V225" stroke="#173b62" stroke-width="7"/><path d="M75 105l-13 24h26z" fill="#173b62"/><path d="M75 105L270 105L425 165M75 105L270 165L425 225M75 105L270 225L425 165" fill="none" stroke="#f0ad38" stroke-width="5"/><circle cx="190" cy="165" r="7" fill="#173b62"/><circle cx="350" cy="165" r="7" fill="#173b62"/><text x="182" y="195" font-family="DejaVu Sans" font-size="20" fill="#173b62">F</text><text x="342" y="195" font-family="DejaVu Sans" font-size="20" fill="#173b62">F</text></g></g>
    </svg>