<svg xmlns="http://www.w3.org/2000/svg" viewBox="0 0 100 112" role="img" aria-label="نورة">
<defs><linearGradient id="g" x1="0" x2="1" y1="0" y2="1"><stop stop-color="#E95D9D"/><stop offset="1" stop-color="#58D3A2"/></linearGradient></defs>
<circle cx="50" cy="51" r="45" fill="url(#g)" opacity=".18"/>
<path d="M50 29c-17 0-28 13-28 31v24c0 8 5 15 13 18l15 6 15-6c8-3 13-10 13-18V60c0-18-11-31-28-31Z" fill="#E95D9D"/>
<ellipse cx="50" cy="58" rx="22" ry="25" fill="#E7B08B"/>
<path d="M29 59c1-22 10-35 21-35 13 0 23 15 23 36-6-10-14-15-23-15-9 0-16 5-21 14Z" fill="#E95D9D"/>
<path d="M26 73c4 13 12 20 24 20s20-7 24-20v23c-7 7-15 11-24 11S33 103 26 96Z" fill="#F6DDE9"/>
<ellipse cx="41" cy="59" rx="2.1" ry="2.6" fill="#253247"/><ellipse cx="59" cy="59" rx="2.1" ry="2.6" fill="#253247"/>
<path d="M44 72c4 4 8 4 12 0" fill="none" stroke="#9B4A45" stroke-width="2" stroke-linecap="round"/>

<circle cx="50" cy="55" r="44" fill="none" stroke="white" stroke-width="3" opacity=".72"/>
</svg>