<svg xmlns="http://www.w3.org/2000/svg" viewBox="0 0 100 112" role="img" aria-label="راكان">
<defs><linearGradient id="g" x1="0" x2="1" y1="0" y2="1"><stop stop-color="#16A085"/><stop offset="1" stop-color="#58D3A2"/></linearGradient></defs>
<circle cx="50" cy="51" r="45" fill="url(#g)" opacity=".18"/>
<ellipse cx="50" cy="58" rx="23" ry="26" fill="#D9A77E"/>
<path d="M27 52c1-22 14-31 25-31 15 0 25 10 24 28-7-8-13-11-20-11-11 0-17 7-29 14Z" fill="#1B1512"/>
<path d="M28 82c8 7 15 10 22 10s14-3 22-10v23H28Z" fill="#F7F7F7"/>
<ellipse cx="41" cy="59" rx="2.1" ry="2.6" fill="#253247"/><ellipse cx="59" cy="59" rx="2.1" ry="2.6" fill="#253247"/>
<path d="M44 72c4 4 8 4 12 0" fill="none" stroke="#9B4A45" stroke-width="2" stroke-linecap="round"/>

<circle cx="50" cy="55" r="44" fill="none" stroke="white" stroke-width="3" opacity=".72"/>
</svg>